<svg xmlns:dc="http://purl.org/dc/elements/1.1/" xmlns:cc="http://creativecommons.org/ns#" xmlns:rdf="http://www.w3.org/1999/02/22-rdf-syntax-ns#" xmlns:svg="http://www.w3.org/2000/svg" xmlns="http://www.w3.org/2000/svg" xmlns:sodipodi="http://sodipodi.sourceforge.net/DTD/sodipodi-0.dtd" xmlns:inkscape="http://www.inkscape.org/namespaces/inkscape" version="1.1" x="0px" y="0px" viewBox="0 0 95 95"><g transform="translate(0,-952.36218)"><path style="color:#000000;enable-background:accumulate;" d="m 14,965.36217 c -2.216,0 -4,1.784 -4,4 l 0,8 8.0938,0 10.3437,-12 -14.4375,0 z m 19.6875,0 -10.3437,12 14.75,0 10.3437,-12 -14.75,0 z m 20,0 -10.3437,12 14.75,0 10.3437,-12 -14.75,0 z m 20,0 -10.3437,12 16.6562,0 0,-8 c 0,-2.216 -1.784,-4 -4,-4 l -2.3125,0 z m -63.6875,16 0,44.00003 c 0,2.216 1.784,4 4,4 l 46.5312,0 c -0.332,-1.2836 -0.5312,-2.6126 -0.5312,-4 0,-8.8366 7.1634,-16 16,-16 1.3874,0 2.7164,0.1994 4,0.5312 l 0,-28.53123 -70,0 z m 30,14 16,10.00003 -16,10 0,-20.00003 z m 36,16.00003 c -7.732,0 -14,6.268 -14,14 0,7.732 6.268,14 14,14 7.732,0 14,-6.268 14,-14 0,-7.732 -6.268,-14 -14,-14 z m 0,2 c 3.4574,0 6.5,2.4646 6.5,5.7812 0,3.513 -1.7088,5.4021 -2.9688,6.5626 -1.26,1.1603 -2.0312,1.5904 -2.0312,4.1562 0.011,0.7925 -0.7074,1.5312 -1.5,1.5312 -0.7925,0 -1.511,-0.7387 -1.5,-1.5312 0,-3.4035 1.7286,-5.233 2.9688,-6.375 1.2398,-1.142 2.0312,-1.6344 2.0312,-4.3438 0,-1.4319 -1.4376,-2.7812 -3.5,-2.7812 -1.9321,0 -3.2715,0.8764 -3.5312,1.9688 -0.1857,0.7717 -1.0417,1.3136 -1.8126,1.125 -0.7708,-0.1887 -1.3167,-1.0736 -1.125,-1.8438 0.6722,-2.8261 3.5712,-4.25 6.4688,-4.25 z m 0,20 c 1.1046,0 2,0.8954 2,2 0,1.1046 -0.8954,2 -2,2 -1.1046,0 -2,-0.8954 -2,-2 0,-1.1046 0.8954,-2 2,-2 z" fill="#000000" stroke="none" marker="none" visibility="visible" display="inline" overflow="visible"/></g></svg>