<svg width="14" height="14" viewBox="0 0 14 14" fill="none" xmlns="http://www.w3.org/2000/svg">
<path d="M6.2125 11.1475V2.8525C6.2125 2.065 5.88 1.75 5.04 1.75H2.9225C2.0825 1.75 1.75 2.065 1.75 2.8525V11.1475C1.75 11.935 2.0825 12.25 2.9225 12.25H5.04C5.88 12.25 6.2125 11.935 6.2125 11.1475Z" fill="#24272D"/>
<path d="M12.25 11.1475V2.8525C12.25 2.065 11.9175 1.75 11.0775 1.75H8.96001C8.12584 1.75 7.78751 2.065 7.78751 2.8525V11.1475C7.78751 11.935 8.12001 12.25 8.96001 12.25H11.0775C11.9175 12.25 12.25 11.935 12.25 11.1475Z" fill="#24272D"/>
</svg>
